<?xml version="1.0" encoding="utf-8"?>
<!-- Generator: Adobe Illustrator 27.0.1, SVG Export Plug-In . SVG Version: 6.00 Build 0)  -->
<svg version="1.1" id="Ebene_1" xmlns="http://www.w3.org/2000/svg" xmlns:xlink="http://www.w3.org/1999/xlink" x="0px" y="0px"
	 viewBox="0 0 423.79 212.54" style="enable-background:new 0 0 423.79 212.54;" xml:space="preserve">
<style type="text/css">
	.st0{fill:#1E1E1C;}
	.st1{fill:#85919C;}
</style>
<g>
	<g>
		<g>
			<path class="st0" d="M414.86,166.59c0,24.43-6.63,38.21-24.95,38.21c-19.75,0-25.34-14.95-25.34-38.08
				c0-24.3,6.63-38.08,24.95-38.08C409.27,128.64,414.86,143.59,414.86,166.59 M422.26,166.46c0-30.93-8.97-44.06-31.97-44.06h-0.78
				c-21.7,0-32.36,15.2-32.36,44.7c0,30.8,8.97,43.93,31.97,43.93h0.91C411.74,211.03,422.26,195.83,422.26,166.46 M340.13,210.51
				l-6.11-87.59H322.2l-22.61,72.78h-0.13l-22.61-72.78h-11.83l-6.24,87.59h7.02l5.46-80.96h0.13l25.34,80.96h5.2l25.34-80.96h0.13
				l5.46,80.96H340.13z M238.38,122.92h-7.41v87.59h7.41V122.92z M217.72,129.29v-6.37H165.6v6.37h22.35v81.22h7.28v-81.22H217.72z
				 M147.28,145.02c0,9.62-5.2,16.63-19.1,16.63h-12.61v-32.36c3.77-0.13,8.19-0.26,12.22-0.26
				C143.51,129.03,147.28,135.14,147.28,145.02 M158.59,210.51l-22.74-43.93c12.22-1.82,19.1-10.4,19.1-22.09
				c0-13.39-7.02-21.7-26.77-21.7c-6.11,0-13.26,0-20.01,0.26v87.46h7.41v-42.76h12.87l21.57,42.76H158.59z M84.77,122.92h-7.41
				v87.59h7.41V122.92z M62.29,122.92h-7.67l-20.4,71.48l-2.21,8.84l-2.08-8.71L9.27,122.92H1.34l25.73,87.59h9.23L62.29,122.92z"/>
		</g>
	</g>
	<g>
		<g>
			<polygon points="331.66,88.97 305.93,1.41 305.93,1.41 297.42,30.34 314.66,88.97 			"/>
			<polygon points="288.92,1.41 297.42,30.34 305.93,1.41 			"/>
		</g>
		<g>
			<g>
				<g>
					<polygon points="288.92,1.41 288.92,1.41 271.68,60.04 280.19,88.97 297.42,30.34 					"/>
					<polygon points="254.45,1.41 254.45,1.41 245.94,30.34 263.18,88.97 271.68,60.04 					"/>
					<polygon points="263.18,88.97 280.19,88.97 271.68,60.04 					"/>
				</g>
				<polygon points="237.44,1.41 220.21,60.04 228.71,88.97 245.94,30.34 237.44,1.41 				"/>
				<polygon points="237.44,1.41 245.94,30.34 254.45,1.41 				"/>
			</g>
			<polygon points="211.7,88.97 228.71,88.97 220.21,60.04 			"/>
		</g>
		<g>
			<g>
				<g>
					<g>
						<polygon points="202.97,1.41 202.97,1.41 194.47,30.34 211.7,88.97 211.7,88.97 220.21,60.04 						"/>
						<polygon points="168.73,60.04 177.23,88.97 194.47,30.34 185.96,1.41 						"/>
						<polygon points="185.96,1.41 194.47,30.34 202.97,1.41 						"/>
					</g>
					<polygon points="151.49,1.41 151.49,1.41 142.99,30.34 160.23,88.97 168.73,60.04 					"/>
					<polygon class="st1" points="177.23,88.97 177.23,88.97 177.23,88.97 					"/>
					<polygon points="168.73,60.04 160.23,88.97 177.23,88.97 177.23,88.97 					"/>
				</g>
				<polygon points="134.49,1.41 117.25,60.04 125.76,88.97 142.99,30.34 134.49,1.41 				"/>
				<polygon points="134.49,1.41 142.99,30.34 151.49,1.41 				"/>
			</g>
			<polygon points="100.02,1.41 83.01,1.41 108.75,88.97 117.25,60.04 			"/>
		</g>
	</g>
	<polygon points="108.75,88.97 125.76,88.97 117.25,60.04 	"/>
</g>
</svg>
