<svg width="167" height="20" viewBox="0 0 167 20" fill="none" xmlns="http://www.w3.org/2000/svg">
<g clip-path="url(#clip0_2110_212)">
<path d="M0 14.1064H2.83247C2.88512 15.766 4.41192 17.3617 6.80214 17.3617C9.19237 17.3617 10.4138 15.9043 10.4138 14.3085C10.4138 12.5957 8.88701 11.7872 7.32863 11.3617L4.88575 10.7447C0.800252 9.70213 0.136885 7.26596 0.136885 5.67021C0.136885 2.2766 3.10624 0 6.49678 0C9.88733 0 12.6356 2.19149 12.6356 5.7234H9.80309C9.80309 3.90426 8.39212 2.6383 6.41255 2.6383C4.61198 2.6383 3.00095 3.84043 3.00095 5.60638C3.00095 6.2234 3.19048 7.48936 5.61229 8.12766L8.02358 8.79787C11.2456 9.67021 13.2673 11.3191 13.2673 14.1596C13.2673 17.383 10.656 19.9894 6.80214 19.9894C2.71665 19.9894 0 17.2128 0 14.0957L0 14.1064Z" fill="#EDEDED"/>
<path d="M26.6821 0.340332C30.7887 0.340332 32.5155 3.39352 32.5155 6.45735C32.5155 9.52118 30.7992 12.5212 26.6821 12.5212H21.8806V19.6701H19.0165V0.340332H26.6821ZM26.5136 9.87225C28.7354 9.87225 29.6515 8.15948 29.6515 6.44671C29.6515 4.73395 28.767 2.96799 26.6295 2.96799H21.8806V9.87225H26.5136Z" fill="#EDEDED"/>
<path d="M35.548 10.0426C35.548 4.54255 39.7704 0 45.2142 0C50.6581 0 54.9331 4.54255 54.9331 10.0426C54.9331 15.5426 50.6896 20 45.2142 20C39.7388 20 35.548 15.5106 35.548 10.0426ZM52.0585 10.0426C52.0585 6.06383 49.1207 2.69149 45.2037 2.69149C41.2867 2.69149 38.4016 6.05319 38.4016 10.0426C38.4016 14.0319 41.3183 17.3085 45.2037 17.3085C49.0891 17.3085 52.0585 14 52.0585 10.0426Z" fill="#EDEDED"/>
<path d="M69.5903 19.6595L64.673 12.4467H62.5039V19.6595H59.6398V0.340332H66.9369C71.1277 0.340332 72.8229 3.39352 72.8229 6.45735C72.8229 9.23395 71.1593 12.1488 67.9688 12.4574L72.9914 19.6701H69.5798L69.5903 19.6595ZM62.5039 2.96799V9.92544H66.2524C68.8848 9.92544 69.9694 8.49991 69.9694 6.44671C69.9694 4.39352 68.7796 2.96799 66.9158 2.96799H62.5039Z" fill="#EDEDED"/>
<path d="M90.7444 0.340332V2.97863H85.0478V19.6701H82.1838V2.96799H76.4872V0.340332H90.7338H90.7444Z" fill="#EDEDED"/>
<path d="M98.1361 17.0212H105.823V19.6595H95.2721V0.340332H98.1361V17.0318V17.0212Z" fill="#EDEDED"/>
<path d="M123.46 19.6595L121.68 14.7765H113.71L111.93 19.6595H108.929L116.184 0.340332H119.238L126.461 19.6701H123.46V19.6595ZM114.626 12.2552H120.764L117.711 3.84033L114.626 12.2552Z" fill="#EDEDED"/>
<path d="M141.476 0.340332H144.34V19.6701H141.645L133.284 5.58501V19.6701H130.42V0.340332H133.2L141.476 14.3084V0.340332Z" fill="#EDEDED"/>
<path d="M158.334 0.340332C163.799 0.340332 167 4.5531 167 10.0425C167 15.5318 163.809 19.6595 158.334 19.6595H150.89V0.340332H158.334ZM158.334 17.0212C162.167 17.0212 164.136 13.968 164.136 10.0318C164.136 6.09565 162.167 2.96799 158.334 2.96799H153.754V17.0212H158.334Z" fill="#EDEDED"/>
</g>
<defs>
<clipPath id="clip0_2110_212">
<rect width="167" height="20" fill="white"/>
</clipPath>
</defs>
</svg>
