<svg width="542" height="462" viewBox="0 0 542 462" fill="none" xmlns="http://www.w3.org/2000/svg">
<path d="M135.776 15.0261C135.776 15.0261 135.645 15.0523 135.567 15.1306C135.437 15.2352 135.228 15.4964 135.019 15.8884C134.262 17.4299 133.322 18.5534 132.095 25.5036C132.017 27.1235 132.774 28.247 132.852 27.2542C132.931 26.2613 133.244 23.7007 133.557 22.943C133.87 22.1591 134.236 22.3159 135.071 22.943C135.906 23.5701 136.011 22.8907 137.629 22.342C139.248 21.7933 139.535 21.1401 138.934 21.1401C138.334 21.1401 136.585 21.6366 135.149 21.2447C133.688 20.8527 134.81 18.7886 135.045 17.2993C135.228 16.0974 136.402 15.81 136.559 15.6532C136.22 15.5748 136.011 15.0784 135.802 15L135.776 15.0261ZM141.31 21.2708C141.31 23.5701 141.623 26.1829 142.615 28.4822C142.98 29.2138 145.46 32.1401 147.6 34.7268C146.765 37.1306 147.235 37.209 146.086 37.8884C144.938 38.5938 145.147 40.6841 147.052 40.0831C148.671 39.5606 149.167 39.038 149.976 37.6793C150.289 38.0974 150.733 38.6722 150.733 38.7767C149.689 43.2447 144.625 41.5202 140.97 43.0356C141.205 43.3492 143.763 43.6888 142.589 44.9953C142.275 45.6485 139.665 44.5511 139.978 45.2043C140.239 47.3468 140.318 48.9667 145.825 47.7126C146.713 48.6271 146.582 48.8622 147.026 48.5748C147.444 48.3135 148.175 47.3991 148.879 46.4846C149.062 46.5107 149.323 46.4846 149.428 46.5891C147.078 49.3587 145.46 49.7245 145.852 54.2447C146.4 54.5582 146.765 54.5843 147.261 54.4537C148.253 54.2185 148.592 55.0285 149.428 56.6485C150.263 58.2684 149.871 58.8955 148.331 58.5036C146.948 58.1639 146.765 58.0333 146.06 58.5036C146.426 59.9929 146.974 61.2993 147.47 62.3183C146.817 66.9169 154.204 65.0618 155.17 65.0618C161.096 65.6888 159.556 71.1496 163.314 72.6128C164.358 75.0428 162.766 77.5249 171.876 79.8242C162.897 78.4656 163.523 76.2185 161.905 73.5796C158.694 70.8884 159.086 67.4656 156.815 66.4727C153.891 65.1663 150.42 67.8836 147.157 67.2304C145.852 67.2304 144.233 67.2304 143.241 66.5772C142.275 66.2375 142.119 63.8599 141.623 64.2779C134.758 70 136.898 74.9905 138.36 79.4846C133.896 78.3349 132.095 73.658 130.555 77.5249C128.519 82.6461 133.479 78.0214 131.652 84.1876C131.312 85.3112 129.798 86.1211 128.18 83.3254C127.71 83.3254 126.092 82.9335 126.222 81.7838C126.353 80.6603 129.015 79.9287 127.736 77.734C126.092 74.886 125.126 74.1805 125.361 72.4822C125.048 72.1425 124.056 71.829 123.742 71.829C117.008 71.62 115.833 72.3777 112.57 73.3705C110.874 72.9002 106.619 72.5083 104.974 73.4751C104.035 73.9454 102.547 75.4086 101.294 77.2898C102.39 78.4394 103.069 78.8836 102.495 78.9359C101.738 79.0143 101.294 79.0926 101.529 79.6936C101.712 80.2161 101.268 79.8765 100.224 79.2494C98.6054 82.2019 97.5612 85.5202 98.9186 87.2447C100.25 87.4537 102.442 88.0285 104.244 88.0024C104.479 88.6294 105.966 89.4656 104.896 91.5036C105.549 97.095 100.015 107.572 99.3623 109.872C98.3965 112.485 100.667 117.736 98.0572 117.736C95.7862 117.736 93.8285 116.743 91.5576 116.743C90.905 116.743 89.9392 116.743 89.9392 117.397C89.626 118.39 91.2443 119.356 90.905 120.349C90.905 121.002 89.2866 120.009 88.9473 121.002C86.0238 125.914 98.0572 123.955 98.3704 128.553C99.6756 136.758 93.4892 138.064 88.2947 141.67C85.3712 143.629 92.5234 143.969 91.5576 146.268C90.5918 148.568 81.7951 151.52 79.5242 151.181C77.2532 151.181 75.9481 148.881 73.9904 148.228C73.3378 147.888 74.6429 149.874 73.9904 150.188C72.0326 150.841 70.0749 149.848 68.4565 150.841C67.804 151.181 68.4565 152.147 68.4565 152.8C68.1433 153.454 67.4907 154.447 67.804 155.1C69.7617 158.705 76.9139 163.957 73.9904 171.169C73.0245 173.468 70.7275 175.114 69.7617 177.413C68.4565 180.026 72.6852 178.067 72.372 179.713L66.1856 185.278C65.533 185.278 66.4205 183.815 65.4547 184.128C62.5312 188.962 70.4926 185.696 69.4485 192.489C69.1352 193.796 66.8382 193.796 66.5249 195.102C66.2117 196.095 70.7536 202.967 71.0668 203.306C71.7194 203.96 73.6771 202.653 73.6771 203.646C73.9904 204.952 71.4062 206.259 71.7194 207.591C72.372 209.551 75.2955 209.238 76.2613 210.884C80.8293 218.435 65.8463 217.755 68.7698 229.905C70.3882 236.803 78.1929 237.561 78.8455 238.553C83.4135 244.145 70.3882 246.758 73.9642 253.316C74.6168 254.309 76.5745 253.316 77.5403 254.309C80.1506 255.955 81.769 263.48 85.0319 266.772C88.9473 271.031 82.4216 257.575 92.1841 266.432C92.8366 267.085 91.5315 268.392 91.8708 269.385C92.5234 270.378 102.938 266.093 104.557 267.425C105.523 268.418 104.87 270.378 105.862 271.371C107.167 272.363 126.692 274.663 125.387 276.936C121.811 283.181 115.311 287.1 112.701 292.352C111.735 294.651 111.396 301.862 111.083 303.822L106.541 311.373C105.888 313.019 105.235 314.665 105.575 316.285C105.575 317.278 106.88 317.278 106.88 317.931C106.567 322.53 103.304 326.789 103.617 331.387C103.617 342.884 104.922 333.033 107.846 335.333C108.159 335.672 105.888 335.986 106.227 336.639C107.193 338.599 122.176 334.993 123.142 334.993C129.642 334.653 123.795 340.898 131.913 336.639C132.226 336.299 131.26 334.679 131.913 334.34C132.878 333.686 136.481 333.347 135.175 333.033C133.218 332.694 131.26 333.373 129.328 333.033C128.363 332.694 133.87 323.836 138.752 328.774C139.404 329.428 137.786 330.734 138.099 331.727C138.412 332.38 139.717 332.72 140.37 332.38C141.023 332.04 140.057 329.767 140.37 330.42C141.675 331.074 141.675 333.373 142.98 334.026C142.98 334.026 153.709 333.373 154.048 333.373C157.624 334.366 159.895 337.971 163.471 339.278C168.692 340.924 168.352 335.019 169.971 336.325C170.623 336.979 169.971 338.625 170.623 339.278C171.928 339.618 173.233 337.971 174.199 338.625C175.504 339.278 176.157 340.924 177.462 341.917C179.08 343.223 176.81 344.53 177.462 345.523C177.775 346.176 178.767 346.515 179.42 346.515C180.072 346.515 181.038 345.209 181.378 345.523C182.343 346.829 178.767 348.815 180.072 350.121C182.343 352.42 188.53 344.869 188.53 343.563C189.182 341.264 187.225 335.698 189.182 337.005C189.182 337.344 188.53 337.658 188.53 337.658C191.14 340.61 200.25 335.359 201.529 339.618C201.842 340.271 199.911 339.957 200.224 340.61C200.537 341.264 202.182 341.264 202.495 341.917C203.147 342.57 202.495 344.216 203.147 344.869C204.452 345.523 215.52 342.57 215.833 342.257C216.486 341.603 215.181 339.957 216.147 339.644C217.452 338.651 219.07 340.297 220.375 339.304C221.68 338.651 221.028 336.352 222.333 335.698C226.562 334.052 234.053 336.038 238.595 334.705C239.561 334.366 235.985 329.14 239.9 328.8C240.553 328.8 239.248 330.76 239.9 331.1C241.519 331.753 243.476 330.107 245.434 330.76C246.4 331.1 246.087 333.373 247.392 333.713C250.002 334.052 252.273 331.753 254.883 331.753C259.764 332.093 251.62 337.318 262.035 340.271C262.688 340.271 263.341 339.278 263.341 338.625C266.264 327.781 262.688 332.72 259.112 329.428C257.494 328.121 262.035 324.176 261.722 323.862C261.722 323.523 253.917 312.705 253.917 312.705C254.231 307.454 268.013 304.188 270.937 301.888C274.199 299.276 272.242 295.67 272.894 292.378C273.207 291.724 273.86 291.385 274.513 291.385C281.352 293.031 283.283 294.99 283.622 286.133C283.936 277.589 269.866 272.677 264.646 269.071C262.375 267.112 262.035 263.506 259.764 261.207C257.311 258.724 254.257 261.233 252.273 259.665C251.699 259.221 253.056 258.515 252.821 258.019C251.881 256.19 250.785 255.929 249.349 255.824C245.956 247.045 246.113 244.798 241.545 241.819C242.197 238.214 246.426 239.86 245.46 235.261C245.147 233.302 242.85 232.857 242.197 232.518C239.9 231.002 237.76 228.651 236.115 226.273C236.115 225.542 236.063 224.81 236.115 224.314C236.22 223.033 234.993 222.485 234.158 221.91C233.348 221.309 233.192 220.969 233.061 220.603C233.218 220.473 233.583 220.316 233.818 220.159C234.706 219.61 232.696 218.696 233.714 217.964C235.019 217.05 236.011 219.088 236.977 220.368C238.282 221.361 238.282 225.933 238.934 224.627C241.545 219.375 242.824 213.157 250.968 211.824C251.934 211.824 255.51 214.777 256.815 213.131C257.781 212.138 256.815 210.178 257.781 209.525C258.746 208.532 260.704 210.178 261.696 209.185C263.654 207.879 264.071 203.933 267.021 203.28C267.987 202.941 268.639 205.24 269.292 204.587C270.91 203.28 270.258 200.641 271.902 199.335C273.86 197.689 277.436 199.675 280.046 198.342C280.699 198.002 280.046 196.382 280.699 196.043C284.614 193.743 290.122 193.43 294.038 190.138C295.343 189.145 289.496 187.838 290.122 186.192C290.67 184.625 291.218 183.109 291.975 183.344C292.993 183.684 293.463 184.938 294.194 184.886C294.899 184.834 295.003 184.363 295.395 184.337C295.63 184.337 295.813 184.677 295.995 184.86C296.256 184.886 296.491 184.912 296.752 184.964C299.389 185.591 299.441 185.827 299.18 187.028C298.919 188.204 299.023 188.727 299.363 188.805C299.702 188.884 300.041 188.492 300.459 188.257C301.66 187.577 301.268 188.91 300.563 190.216C300.615 190.295 300.72 190.373 300.772 190.425C300.459 191.993 301.738 192.306 302.939 192.515C303.591 192.933 304.218 193.195 304.792 193.064C306.75 192.724 306.75 188.152 309.125 180.261C310.065 177.178 311.474 175.245 309.334 170.855C308.107 168.321 309.021 166.126 306.071 164.192C304.766 162.886 301.842 163.539 300.537 161.58C299.571 160.273 303.513 159.385 301.19 156.667C300.407 155.57 298.814 153.819 298.475 151.964C298.188 150.397 296.308 150.606 297.274 149.116C301.79 144.439 299.31 144.204 300.537 139.266C300.224 138.613 298.919 138.926 298.579 137.96C298.266 136.314 299.545 134.014 298.579 132.394C297.927 130.435 295.578 130.931 294.664 128.135C293.202 126.333 294.481 124.399 295.108 123.093C295.708 121.812 296.178 121.185 295.656 117.945C295.264 115.515 291.453 113.582 288.504 111.048C285.763 108.696 282.657 109.401 282.004 107.442C281.43 105.874 283.205 106.58 282.761 102.948C282.552 101.249 284.954 100.021 286.128 98.6888C287.381 97.2779 287.877 94.4822 288.399 92.6793C288.921 90.8765 289.391 90.0665 289.156 88.0808C288.504 84.7886 284.614 75.4085 283.962 70.1568C283.309 70.209 284.51 68.0665 283.518 67.753C282.526 67.4394 280.568 69.1378 278.532 67.962C275.948 66.4204 274.486 65.2969 273.651 64.4608C273.938 64.3824 274.382 64.2518 274.513 64.2518C275.348 64.2518 275.009 62.8931 275.374 63.2589C275.766 63.6508 274.8 64.0689 275.478 64.1211C276.157 64.1995 276.888 63.1544 277.645 62.7102C278.402 62.2399 278.663 62.867 280.02 62.7102C281.404 62.5534 282.187 62.8147 282.187 62.8147L281.978 61.2732L281.665 60.7245L282.422 60.1758C282.422 60.1758 282.552 60.1758 281.325 59.3135C280.099 58.4513 280.177 58.2423 277.958 56.152C275.739 54.0618 275.374 54.5059 275.896 55.2898C276.444 56.0736 277.279 56.8314 277.514 57.9026C277.749 58.9739 277.384 59.7838 277.071 59.3135C276.757 58.8432 276.105 58.5558 276.105 58.5558C276.105 58.5558 275.922 57.8765 275.243 57.7981C274.565 57.7197 273.756 58.5036 274.382 59.1045C275.009 59.7316 275.165 61.4822 274.695 62.5012C274.513 62.8931 273.651 63.2066 272.738 63.3634C272.033 61.2993 277.175 61.5344 270.675 57.1188C268.378 55.5511 276.105 54.924 273.938 54.1663C271.171 49.3848 269.527 49.7245 269.918 51.658C267.308 51.0048 263.419 52.2067 262.975 54.2708C261.592 51.5796 259.06 50.0119 257.128 48.3658C256.162 47.0594 253.865 47.7126 252.899 46.4062C251.594 44.4466 252.899 39.848 250.628 39.848C250.472 39.848 250.289 39.8219 250.185 39.7435C250.133 39.7957 250.106 39.9264 250.08 39.9525C249.245 40.7625 249.402 40.2922 248.462 40.8147C247.496 41.3634 247.679 41.8599 247.496 42.7743C247.313 43.715 246.008 43.6105 245.982 42.9834C245.956 42.3563 245.695 42.0428 245.121 42.1211C244.547 42.1995 243.633 42.1734 243.163 41.4679C242.693 40.7625 243.085 40.8931 242.51 41.4679C241.936 42.0428 241.362 42.4869 240.448 43.2185C239.535 43.9501 239.561 42.0428 239.143 42.7743C238.726 43.5059 239.143 44.0024 238.282 44.3159C237.447 44.6295 237.681 45.1259 237.525 45.7268C237.368 46.3539 236.585 45.8575 236.011 46.8242C235.985 47.2945 236.402 47.7648 237.316 48.0261C238.23 48.2874 236.846 48.2613 235.698 47.9216C234.549 47.5819 235.463 47.3207 235.045 46.5107C234.627 45.7007 235.149 45.8314 235.698 45.0998C236.246 44.3682 236.089 44.8124 236.141 43.8979C236.167 42.9572 236.089 43.0618 236.794 42.5914C237.473 42.1211 238.412 42.5131 239.717 42.0428C241.023 41.5724 239.848 41.886 240.579 41.285C241.31 40.658 241.44 40.9976 242.197 40.9454C242.954 40.9192 242.719 40.5012 243.502 40.5012C244.285 40.5012 244.703 40.7363 245.669 40.5012C246.635 40.266 247.183 40.2399 248.384 40.1615C248.619 40.1615 248.801 39.7957 249.036 39.2993C248.88 39.2993 248.723 39.247 248.488 39.2993C244.364 39.1425 238.621 37.5487 237.969 38.2019C236.011 40.5012 235.698 44.1069 233.74 46.4062C231.808 47.9216 231.077 48.5487 228.963 50.7696C228.65 51.1093 223.56 52.9121 222.229 53.0689C218.992 53.4608 218.209 52.9905 217.138 53.2779C214.215 54.924 213.223 63.1283 211.605 64.095C208.055 59.418 209.021 66.0024 204.766 59.1829C202.155 59.1829 200.328 62.0309 197.718 61.6912C197.118 61.1164 198.579 59.6009 195.212 59.7316C193.985 59.7838 194.325 56.6746 196.308 56.3349C198.84 55.8907 200.459 53.2518 202.704 51.2922C202.573 46.5368 201.947 44.734 203.252 42.8789C201.921 42.9834 201.633 43.7672 200.119 43.2185C198.553 42.6698 194.951 46.4062 194.481 46.6152C192.08 45.8836 185.267 40.7102 183.309 41.0499C181.038 41.3895 178.767 46.4062 178.767 46.4062C178.767 46.4062 180.386 42.1473 180.072 40.1615C179.759 37.209 174.017 40.7102 171.615 40.266C169.84 37.9406 173.964 40.9715 175.844 36.5558C176.496 34.9097 176.81 32.9501 175.844 31.304C175.531 30.6508 173.886 31.9572 173.573 31.304C172.92 30.9644 174.225 30.2066 174.878 29.8931C174.878 29.8931 175.531 30.2328 175.531 29.8931C175.531 28.9002 175.217 27.5938 174.225 26.9406C173.416 26.4442 173.077 26.1829 171.511 26.9406C170.545 25.4513 169.135 24.5891 167.83 24.7458C166.081 24.2233 165.481 23.5178 164.802 22.6556C163.497 22.9952 162.845 24.6152 161.539 25.6081C160.887 25.9477 160.887 25.6081 161.226 24.6152C156.997 23.962 152.769 21.6627 148.54 21.0095C147.574 21.0095 143.659 21.3492 141.388 21.0095L141.31 21.2708ZM139.117 27.0713C137.212 27.1496 134.706 28.247 136.089 29.4751C138.23 30.4157 139.039 30.8599 139.874 29.6841C140.709 28.5344 141.023 26.9929 139.117 27.0713ZM259.817 28.6912C258.277 28.9264 256.867 28.6912 256.032 29.9976C255.196 31.304 255.092 32.2447 255.927 31.304C256.763 30.3634 258.016 30.3634 257.024 32.6105C256.032 34.8575 256.684 34.1781 257.676 33.4727C258.668 32.7672 258.746 32.6366 258.981 32.1663C259.216 31.696 259.295 32.114 260.078 32.8195C260.835 33.5249 261.252 34.0475 262.035 34.1259C262.792 34.2043 262.792 33.9691 262.792 35.4323C262.792 36.8955 262.975 36.8694 262.14 37.1829C261.305 37.4964 260.991 37.4442 260.835 36.5297C260.678 35.5891 261.148 35.7458 260.626 35.2233C260.078 34.6746 260.73 34.6485 259.973 35.1188C259.216 35.5891 259.007 35.6936 259.321 34.1259C259.634 32.5843 259.164 32.715 258.224 33.7862C257.311 34.8575 257.963 34.5178 257.911 35.1971C257.833 35.9026 257.963 35.3017 257.259 34.753C256.58 34.2043 255.327 34.8314 254.544 34.753C253.787 34.6746 254.439 35.0404 254.439 35.7458C254.439 36.4513 254.988 36.2945 255.536 36.2945C256.084 36.2945 256.423 36.2684 256.188 36.7387C255.953 37.209 255.901 37.1306 256.502 37.2874C257.102 37.4442 257.494 36.8694 256.71 37.7316C255.953 38.5938 255.066 38.9335 254.544 39.4822C253.996 40.0309 254.727 40.1354 255.405 40.1354C256.084 40.1354 255.901 40.2399 256.267 40.9976C256.658 41.7815 257.311 42.304 255.953 42.304C254.596 42.304 253.917 41.7553 253.683 42.8527C253.448 43.924 254.022 44.4988 254.544 45.0475C257.232 47.3729 257.65 47.4252 258.329 47.1378C259.007 46.8242 258.564 46.7458 258.877 47.3468C259.19 47.9739 260.025 48.7838 260.939 48.3397C261.853 47.8955 259.764 46.5891 261.148 45.2827C262.531 43.9762 264.593 42.4869 266.134 42.8789C267.674 43.2708 268.274 44.1591 267.439 44.8385C266.603 45.5439 268.692 46.6413 269.057 44.943C269.449 43.2447 269.971 43.323 268.509 41.7815C267.047 40.2399 265.664 41.2589 264.828 38.3848C263.993 35.5368 266.76 37.1045 266.995 34.7791C267.23 32.4537 265.82 32.4276 263.523 32.8195C261.226 33.2114 259.817 33.133 259.738 31.5131C259.66 29.8931 259.817 30.4418 260.495 29.9715C261.174 29.5012 261.383 28.4299 259.843 28.6651L259.817 28.6912ZM142.824 35.6936C142.432 35.6936 141.597 35.981 140.448 36.5558C139.77 37.0261 139.822 37.0261 140.657 38.2019C141.492 39.3515 142.145 38.4109 142.824 36.791C143.163 35.981 143.215 35.7197 142.824 35.6936ZM202.443 36.791C200.563 37.209 200.224 40.0309 200.485 40.5012C200.798 41.0499 201.033 40.8147 201.346 41.0499C202.808 40.5012 202.834 40.3705 202.756 41.3895C202.678 42.3824 203.304 43.6627 204.374 42.8005C205.444 41.9382 206.045 41.9382 206.984 42.2518C207.898 42.5653 208.89 43.0618 207.741 41.0499C206.593 39.038 205.966 37.1829 203.304 36.791C202.965 36.7387 202.704 36.7387 202.443 36.791ZM254.935 37.1306C254.361 37.1829 253.813 37.8622 253.421 38.6722C252.873 39.7435 254.126 39.0119 255.797 38.228C255.953 37.9145 256.241 37.8884 255.484 37.3658C255.301 37.2352 255.118 37.1306 254.935 37.1568V37.1306ZM213.615 58.5558C213.615 58.5558 213.354 58.5558 213.066 58.6603C211.918 59 209.49 59.5226 210.247 60.8551C211.004 62.1615 211.422 62.266 211.552 61.1948C211.657 60.1235 211.944 59.7577 211.866 60.6461C211.787 61.5344 211.787 63.4418 212.727 60.4371C213.223 59.3658 213.823 58.6865 213.589 58.5819L213.615 58.5558ZM90.4091 75.4347C93.3326 74.7292 95.0032 74.886 93.7763 75.5914C92.5495 76.2969 92.8627 77.5249 91.7142 77.133C90.5657 76.7411 89.7304 75.905 90.4091 75.4347ZM96.3083 72.639C101.529 72.3254 103.669 72.9525 100.067 73.0309C96.4649 73.1093 94.0113 73.0309 96.3083 72.639ZM105.053 71.7245C107.663 71.4109 108.577 70.7838 104.74 70.7838C100.902 70.7838 102.912 71.9335 105.053 71.7245ZM109.36 70.3919C110.273 70.9406 110.665 71.8551 109.673 71.4632C108.681 71.0713 108.368 70.1568 109.36 70.3919ZM112.179 69.791C115.024 69.791 115.859 70.5748 113.641 70.4964C111.422 70.4181 111.944 70.5748 111.813 71.0451C111.657 71.5154 110.352 71.3587 110.743 70.4964C111.135 69.6342 111.135 69.8694 112.205 69.791H112.179ZM117.948 69.791C119.566 69.399 120.01 69.2423 118.417 69.1639C116.799 69.0855 116.434 69.0071 116.434 69.5558C116.434 70.1045 117.112 69.7126 117.974 69.791H117.948Z" fill="#EFF4F6" fill-opacity="0.8" stroke="#1F3A47" stroke-width="0.4"/>
<path d="M188.817 367.914C188.504 369.221 188.817 370.867 188.165 372.173C187.852 373.48 186.86 374.473 186.207 375.779C186.207 376.432 192.394 381.031 188.478 382.337C181.639 383.983 183.91 374.472 178.063 378.731C173.495 382.024 179.368 385.629 180.021 387.275C180.334 388.582 178.402 389.575 178.402 390.881C178.716 392.187 180.021 392.841 180.673 393.834C180.987 395.14 178.402 396.446 177.097 395.793C174.826 394.487 176.131 389.235 173.521 388.895C164.724 387.249 168.953 393.807 163.759 392.187C155.301 390.228 160.496 383.644 156.267 382.99C150.733 381.997 154.309 390.855 154.309 391.534C153.004 397.439 145.2 399.399 145.2 406.636C145.2 409.929 151.699 408.596 146.165 412.881C144.208 414.527 143.555 408.936 142.25 407.29C141.284 406.297 138.987 406.95 138.674 405.644C138.361 404.337 140.632 403.344 140.945 402.038C140.945 401.385 140.292 400.731 139.979 400.731C136.403 399.425 131.182 398.432 128.911 394.173C128.598 392.867 129.564 391.56 129.564 390.568C129.564 388.608 129.877 386.622 129.251 384.663C128.937 384.323 128.285 385.002 127.632 385.316C126.014 386.622 124.709 387.929 123.064 389.261C121.446 390.568 118.836 391.221 118.183 393.206C117.87 394.513 120.793 395.166 120.454 396.812C120.454 398.458 111.344 407.969 111.005 407.969C108.081 407.969 105.784 404.024 102.861 404.677C98.632 405.67 89.8354 412.228 86.5986 406.323C85.2935 404.363 85.2935 402.064 83.6751 400.418C83.3618 399.765 82.0567 401.724 81.7174 401.071C81.4041 400.078 83.0225 398.458 82.3699 397.465C82.0567 396.473 80.099 397.465 79.4464 396.812C77.4887 393.52 82.0567 393.86 81.7174 391.9C81.4041 390.254 79.4464 389.601 79.4464 387.955C79.1332 386.962 81.7174 385.002 80.4122 384.663C76.1836 382.703 67.0737 382.703 64.1501 387.275C63.4976 387.929 63.8369 388.582 63.8369 389.575C64.1501 390.228 65.7946 390.881 65.4553 391.534C63.4976 395.48 58.9557 397.126 55.0402 396.133C54.727 396.133 56.3454 395.48 56.3454 394.826C56.3454 390.568 59.6082 392.214 59.9215 391.221C61.5399 385.969 57.3112 381.37 61.2266 376.458C63.4976 373.166 69.3707 373.166 70.6759 369.56C71.6417 367.601 69.7101 364.648 70.6759 362.349C71.981 359.736 76.5229 360.703 78.4806 358.404C80.7516 356.444 83.3618 349.86 86.2854 347.56C87.9037 346.254 89.5482 349.86 89.8615 345.261C89.8615 343.615 84.9802 346.907 84.6409 345.261C83.9883 343.615 86.5986 342.309 87.5644 341.002C87.5644 341.002 88.217 341.342 88.217 341.002C88.217 340.349 86.9118 339.043 87.5644 338.703C96.6743 336.09 92.785 348.553 103.827 337.057C104.14 337.057 104.792 336.404 105.132 335.75L105.784 335.097C106.437 334.758 107.089 334.758 107.742 335.437C108.055 335.777 105.784 336.09 106.124 336.743C107.089 338.703 122.072 335.097 123.038 335.097C129.538 334.758 123.691 341.002 131.835 336.743C132.148 336.404 131.182 334.784 131.835 334.444C132.801 333.791 136.403 333.451 135.098 333.138C133.14 332.798 131.182 333.477 129.251 333.138C128.285 332.798 133.819 323.94 138.7 328.879C139.353 329.532 137.734 330.838 138.047 331.831C138.361 332.484 139.666 332.824 140.318 332.484C140.971 332.145 140.005 329.872 140.318 330.525C141.623 331.178 141.623 333.477 142.929 334.13C142.929 334.13 153.657 333.477 153.996 333.477C157.259 334.13 159.53 337.423 162.454 339.069V339.408C162.454 341.708 166.682 342.361 165.377 345.653C165.064 346.306 163.759 345.993 163.419 346.306C162.454 347.952 159.191 359.762 159.843 360.102C160.496 360.442 171.224 361.408 171.563 361.408C172.216 362.062 170.598 363.054 171.25 363.708C172.869 365.667 174.826 367 177.097 367.967C182.318 370.579 183.284 361.722 186.86 362.375C187.826 362.375 188.478 362.715 189.131 363.028L188.817 365.981C188.504 366.974 188.165 367.627 188.817 367.94V367.914Z" fill="#EFF4F6" fill-opacity="0.8" stroke="#1F3A47" stroke-width="0.4"/>
<path d="M440.523 300.713C440.34 300.87 440.21 300.87 439.975 301.053C439.009 301.706 438.539 301.418 438.017 301.157C437.495 300.896 436.607 300.948 435.746 301.262C434.885 301.575 434.624 301.366 433.579 301.366C432.535 301.366 432.823 302.045 431.961 302.124C431.1 302.202 430.969 302.464 430.003 302.568C429.038 302.646 429.455 303.091 428.803 303.43C428.15 303.77 427.732 303.979 427.08 304.841C426.427 305.703 425.749 306.121 424.913 306.148C424.156 306.2 423.504 306.513 423.191 307.01C416.482 308.212 411.105 310.668 408.651 314.326C403.117 319.917 401.708 329.297 394.556 333.896C388.056 337.841 383.175 335.202 376.675 334.889C371.455 334.549 365.947 334.235 361.066 335.882C359.108 336.535 358.455 339.174 356.524 339.827C347.414 343.119 336.686 337.867 327.576 338.834C320.424 339.487 320.215 346.49 312.384 343.197C308.991 342.022 310.113 336.979 312.071 335.986C314.42 334.758 316.117 333.269 314.785 332.041C313.637 330.943 310.87 331.988 308.181 330.186C306.119 328.801 304.971 327.991 302.856 327.991C301.081 329.167 300.742 331.231 301.447 334.105C301.134 334.601 300.063 334.68 299.489 335.202C298.941 335.725 298.863 336.613 298.288 336.848C297.14 337.293 296.278 336.796 295.782 337.946C295.991 340.768 295.417 340.715 295.469 341.342C295.521 341.865 296.096 342.074 295.782 343.746C295.339 346.281 295.521 346.882 295.991 347.352C296.461 347.822 297.166 348.214 297.714 350.513C298.262 352.839 300.899 351.219 301.081 354.224C301.316 357.96 302.804 359.319 303.796 360.129C306.145 360.05 304.945 361.618 306.511 361.121C307.946 360.651 307.294 363.159 310.191 362.663C311.496 362.428 311.679 364.91 313.454 365.276C314.576 365.511 314.107 366.791 316.169 368.333C318.1 369.796 319.432 369.3 319.745 369.535C320.711 370.528 319.719 372.749 318.335 374.238C318.022 374.578 317.265 376.25 316.821 377.53C316.038 379.725 314.681 378.941 314.759 380.143C315.072 384.167 313.924 383.958 313.454 384.088C312.332 384.402 311.836 385.342 310.844 384.532C310.243 384.036 309.043 383.984 308.991 385.734C306.224 384.271 308.86 386.152 305.519 388.347C305.023 389.157 306.876 390.072 307.477 391.3C308.051 392.528 306.589 393.102 307.268 395.35C307.268 396.996 306.824 397.414 307.163 399.06C307.477 399.713 307.372 398.851 308.025 399.164C308.991 399.817 310.739 401.228 311.053 402.561C312.097 406.846 309.434 405.383 309.643 407.159C309.069 408.048 309.695 409.224 308.782 409.459C307.242 409.851 306.511 409.955 306.511 410.765C307.268 410.635 307.45 411.262 308.233 411.967C309.121 412.751 310.113 413.587 310.4 414.162C310.687 414.737 311.47 414.502 311.705 414.92C311.94 415.338 312.306 416.775 313.324 417.219C314.368 417.663 315.125 418.499 316.143 418.76C317.161 419.022 317.839 419.623 318.649 419.414C319.432 419.231 319.98 419.884 320.919 420.067C321.859 420.25 322.146 420.067 322.773 420.171C323.373 420.276 324.548 419.335 324.939 421.817C325.331 424.3 326.14 425.632 326.558 426.311C326.975 426.991 327.706 426.834 328.62 429.264C328.985 430.205 329.56 430.858 329.821 431.119C329.847 431.119 329.899 431.119 329.925 431.119C329.925 431.145 329.925 431.328 329.925 431.328C329.925 431.354 329.925 431.407 329.925 431.433C329.951 431.459 330.003 431.511 330.029 431.537C330.238 433.575 328.776 433.915 328.515 435.796C328.489 436.136 328.489 436.475 328.515 436.893C328.542 437.311 328.594 437.782 328.724 438.304C329.09 439.715 329.481 441.309 329.821 442.903C329.821 442.981 329.821 443.06 329.821 443.112C330.134 444.627 330.421 446.091 330.369 447.371C330.369 447.397 330.369 447.449 330.369 447.475C331.674 447.475 333.083 447.371 334.389 447.371C335.694 447.371 336.999 447.266 337.965 446.273C339.27 445.62 338.408 443.765 339.687 443.112C341.489 441.962 341.854 444.863 343.055 443.321C345.117 440.708 349.006 442.563 350.964 441.91C352.295 441.309 351.564 440.734 352.687 440.368C354.409 439.846 355.088 440.212 358.325 437.311C359.891 435.901 359.682 437.364 362.345 436.554C365.347 435.639 362.971 433.706 364.407 432.19C365.138 431.433 366.156 432.844 367.33 432.53C368.505 432.19 369.889 430.074 370.463 430.335C371.298 430.988 372.969 431.328 374.248 430.675C376.205 430.335 376.414 428.062 378.372 428.715C380.016 429.238 379.233 432.112 381.504 433.418C381.818 434.072 384.872 433.314 385.524 433.627C386.49 433.967 387.377 436.136 388.343 435.822C389.648 435.482 387.899 433.967 389.205 433.627C390.562 433.706 390.98 433 392.024 433.183C394.582 433.627 401.134 435.195 402.752 436.031C403.405 436.371 402.961 437.233 403.953 437.233C406.198 436.606 410.139 434.49 411.549 434.281C412.697 434.098 411.601 432.948 412.854 432.635C414.316 432.269 415.882 432.713 417.291 432.19C418.727 431.694 419.849 430.414 420.972 429.996C421.755 429.943 421.337 431.485 423.347 430.753C425.357 430.022 429.847 427.043 429.847 427.043C430.734 426.338 430.865 425.475 430.813 424.535C430.76 423.594 431.361 423.15 430.264 421.791C429.168 420.407 431.622 420.093 428.411 417.297C425.383 414.658 423.373 411.601 429.716 410.295C430.682 410.295 432.509 411.288 433.945 410.295C431.021 405.383 438.487 405.696 440.445 403.397C441.75 401.437 439.792 398.145 441.75 396.499C443.368 394.853 446.292 396.499 448.589 395.506L454.122 389.262C461.614 385.316 463.885 391.221 471.376 392.867C471.69 393.207 471.063 391.874 471.69 391.561C473.961 389.915 475.918 387.616 478.529 386.649C480.486 385.996 482.444 386.309 484.376 385.996H485.028C484.715 385.003 483.723 384.036 482.757 382.703C481.139 381.397 473.987 377.138 473.647 376.798C473.647 376.145 474.613 375.152 474.3 374.499C470.724 365.642 456.393 377.452 462.267 369.587C463.572 367.627 466.495 366.974 467.8 364.988C468.453 364.335 466.495 363.342 466.835 362.376C467.148 361.069 468.792 360.73 469.445 359.423C469.445 359.083 468.14 358.43 468.479 358.43C470.097 357.437 473.021 358.43 474.013 356.784C474.979 355.138 473.047 352.525 472.708 350.54C471.403 345.288 471.742 342.022 471.089 336.77C471.089 336.117 469.132 336.43 469.132 335.777C469.784 334.784 472.055 334.784 472.394 333.478C472.995 331.231 473.125 329.114 472.943 327.129C472.943 327.024 472.943 326.92 472.943 326.789C473.099 326.371 473.308 326.162 473.7 325.692C474.483 324.751 474.43 324.725 475.214 324.934C475.997 325.117 476.806 324.49 478.685 323.627C480.565 322.765 481.4 323.288 483.227 323.836C485.08 324.385 484.637 323.601 484.846 322.635C485.08 321.668 485.811 322.426 486.568 319.029C487.325 315.632 487.404 316.102 486.02 314.665C484.663 313.228 485.42 312.366 484.506 310.72C483.593 309.074 484.898 309.44 484.506 308.865C484.115 308.29 484.193 308.238 484.193 308.003C484.193 307.898 484.193 307.715 484.193 307.559L480.278 308.865L477.25 308.525L473.569 309.388L465.321 307.193L464.224 304.893L463.258 304.031L462.606 301.732L461.64 300.87L459.578 303.273C459.578 303.273 457.072 304.397 456.002 304.475C454.932 304.554 454.436 302.228 453.392 301.418C452.87 301 452.687 300.948 452.635 301.079C452.582 301.236 452.635 301.601 452.53 301.941C452.347 302.673 452.06 302.908 450.807 303.038C449.554 303.169 447.806 303.221 446.683 303.796C445.561 304.397 445.561 304.449 444.621 303.352C443.681 302.254 442.637 302.359 442.011 302.359C441.384 302.359 440.497 300.504 440.497 300.504L440.523 300.713Z" fill="#EFF4F6" fill-opacity="0.8" stroke="#1F3A47" stroke-width="0.4"/>
<circle cx="220.966" cy="294.504" r="6" fill="#006895"/>
<circle cx="146.966" cy="278.504" r="3" fill="#006895"/>
<circle cx="146.966" cy="350.504" r="3" fill="#006895"/>
<circle cx="388.165" cy="374.102" r="3" fill="#006895"/>
<circle cx="113.966" cy="164.504" r="3" fill="#006895"/>
</svg>
